<svg width="800" height="600" xmlns="http://www.w3.org/2000/svg">

 <g>
  <title>Layer 1</title>
  <path d="m118.18182,265.45456c0.9091,0 2.7409,0.22217 4.54546,0c3.7202,-0.45798 10.40498,-4.04364 17.27273,-10.00002c9.71248,-8.4236 17.27272,-19.09091 24.54546,-33.63637c6.36363,-12.72726 13.48831,-27.04222 17.27272,-40.90909c3.42693,-12.55698 4.36923,-24.57314 5.45454,-30.90909c0.78262,-4.56892 2.26024,-6.52386 2.72728,-4.54546c0.41772,1.76953 0,4.54546 0,11.81818c0,10.9091 0,24.54546 0,47.27274c0,16.36363 -4.8512,30.85149 -7.27272,44.54546c-2.08211,11.77454 -3.55911,21.6091 -5.45456,30.90909c-1.64401,8.06635 -2.40062,14.60074 -3.63635,20.90909c-1.4411,7.35675 -3.21249,14.6333 -4.54546,20c-1.38596,5.58008 -2.37212,10.72501 -3.63637,15.45456c-1.66003,6.21017 -1.6351,11.85867 -2.72726,16.36362c-1.55934,6.43198 -2.71057,11.55637 -3.63637,16.36365c-0.68765,3.57074 -1.40047,7.32138 -1.81819,9.09091c-0.46704,1.97839 -2.35071,3.10382 -3.63635,1.81818c-0.64282,-0.64282 -0.90909,-0.90909 -0.90909,-6.36365c0,-11.81818 1.38284,-28.26587 5.45454,-48.18179c4.10818,-20.09439 10.75157,-40.06076 18.18181,-59.09091c7.12224,-18.2413 13.26726,-35.62521 21.81819,-53.63637c7.84637,-16.52711 17.03656,-31.12733 25.45454,-40c8.84879,-9.32675 12.16988,-13.56146 14.54546,-14.54546c1.67978,-0.69579 4.46332,0.28004 6.36363,3.63635c1.84677,3.26175 3.1796,6.29619 3.63637,10.9091c0.80623,8.14198 0,13.63635 -0.9091,19.0909l-1.81818,5.45454" id="svg_1" stroke="#000" fill="none"/>
  <path d="m179.09091,252.72728c0.90909,0 1.70778,-1.3577 4.54546,-1.81819c2.69205,-0.43686 4.54546,0 6.36363,0c2.72728,0 4.61465,0.56119 5.45454,0.90909c3.56337,1.476 7.42543,7.20032 9.09091,10.90909c2.00551,4.46597 4.08748,8.09799 4.54546,11.81818c0.66646,5.4137 -0.07391,10.01099 0.90909,16.36365c0.84561,5.46475 0.90909,10 0.90909,13.63635c0,3.63638 -0.4171,5.17587 -0.90909,6.36365c-1.04369,2.51965 -1.28566,4.16888 0,5.45456c1.28564,1.28564 2.64345,-1.36023 6.36363,-1.81821c2.70685,-0.33325 8.18182,0 10,0c2.72728,0 3.67537,-0.26343 4.54546,0c3.13715,0.94986 6.62599,4.42572 8.18182,8.18182c2.20029,5.31195 4.54546,10 4.54546,15.45456c0,5.45453 0.43672,16.43164 -0.90909,23.63635c-1.37651,7.36911 -2.6321,14.09689 -6.36365,20.90909c-2.18373,3.98654 -5.29431,5.89661 -7.27272,6.36365c-1.76955,0.41772 -4.54546,0 -5.45454,0c-3.63637,0 -10,-3.63635 -13.63637,-7.27274c-4.54544,-4.54544 -9.29718,-8.01636 -13.63637,-13.63635c-4.77927,-6.18997 -7.7635,-12.04822 -10.90909,-17.27274c-4.03377,-6.69971 -7.99608,-13.71921 -10.90909,-20c-1.71057,-3.6882 -5.00595,-8.07141 -4.54546,-10.90909c0.7281,-4.48676 12.56371,-10.45056 24.54546,-14.54544c8.98117,-3.06943 14.70634,-3.3226 19.09091,-1.81821c3.84552,1.31943 7.09091,5.255 12.72726,12.72729c4.64526,6.15836 11.29456,11.78476 20.90909,13.63635c11.60493,2.23489 26.00941,-6.27905 33.63637,-19.09091c9.15991,-15.38693 11.3634,-32.70599 11.81818,-47.27274c0.39716,-12.72107 -0.96344,-24.03319 -6.36362,-34.54544c-10.25958,-19.97183 -23.90652,-35.14151 -40.9091,-52.72728c-23.68558,-24.49796 -57.53267,-48.33696 -89.09091,-59.0909c-21.09546,-7.1886 -40.35408,-5.93872 -50.90909,7.27273c-14.23133,17.81302 -18.18003,51.69722 -20,92.72726c-1.16827,26.33775 -1.41425,51.88524 9.09091,73.63637c9.76485,20.21832 29.17625,36.54449 53.63637,45.45456c29.21759,10.64307 67.58325,13.07874 97.27272,1.81818c25.10039,-9.52002 35.45454,-28.18182 41.81819,-47.27274l-1.81818,-5.45453" id="svg_2" stroke="#000" fill="none"/>
 </g>
</svg>