<svg width="800" height="600" xmlns="http://www.w3.org/2000/svg">
 <g>
  <title>Layer 1</title>
  <path fill="none" stroke="#000" id="svg_1" d="m118.18182,265.45456c0.9091,0 2.7409,0.22217 4.54546,0c3.7202,-0.45798 10.40498,-4.04364 17.27273,-10.00002c9.71248,-8.4236 17.27272,-19.09091 24.54546,-33.63637c6.36363,-12.72726 13.48831,-27.04222 17.27272,-40.90909c3.42693,-12.55698 4.36923,-24.57314 5.45454,-30.90909c0.78262,-4.56892 2.26024,-6.52386 2.72728,-4.54546c0.41772,1.76953 0,4.54546 0,11.81818c0,10.9091 0,24.54546 0,47.27274c0,16.36363 -4.8512,30.85149 -7.27272,44.54546c-2.08211,11.77454 -3.55911,21.6091 -5.45456,30.90909c-1.64401,8.06635 -2.40062,14.60074 -3.63635,20.90909c-1.4411,7.35675 -3.21249,14.6333 -4.54546,20c-1.38596,5.58008 -2.37212,10.72501 -3.63637,15.45456c-1.66003,6.21017 -1.6351,11.85867 -2.72726,16.36362c-1.55934,6.43198 -2.71057,11.55637 -3.63637,16.36365c-0.68765,3.57074 -1.40047,7.32138 -1.81819,9.09091c-0.46704,1.97839 -2.35071,3.10382 -3.63635,1.81818c-0.64282,-0.64282 -0.90909,-0.90909 -0.90909,-6.36365c0,-11.81818 1.38284,-28.26587 5.45454,-48.18179c4.10818,-20.09439 10.75157,-40.06076 18.18181,-59.09091c7.12224,-18.2413 13.26726,-35.62521 21.81819,-53.63637c7.84637,-16.52711 17.03656,-31.12733 25.45454,-40c8.84879,-9.32675 12.16988,-13.56146 14.54546,-14.54546c1.67978,-0.69579 4.46332,0.28004 6.36363,3.63635c1.84677,3.26175 3.1796,6.29619 3.63637,10.9091c0.80623,8.14198 0,13.63635 -0.9091,19.0909l-1.81818,5.45454"/>
  <path fill="none" stroke="#000" id="svg_2" d="m179.09091,252.72728c0.90909,0 1.70778,-1.3577 4.54546,-1.81819c2.69205,-0.43686 4.54546,0 6.36363,0c2.72728,0 4.61465,0.56119 5.45454,0.90909c3.56337,1.476 7.42543,7.20032 9.09091,10.90909c2.00551,4.46597 4.08748,8.09799 4.54546,11.81818c0.66646,5.4137 -0.07391,10.01099 0.90909,16.36365c0.84561,5.46475 0.90909,10 0.90909,13.63635c0,3.63638 -0.4171,5.17587 -0.90909,6.36365c-1.04369,2.51965 -1.28566,4.16888 0,5.45456c1.28564,1.28564 2.64345,-1.36023 6.36363,-1.81821c2.70685,-0.33325 8.18182,0 10,0c2.72728,0 3.67537,-0.26343 4.54546,0c3.13715,0.94986 6.62599,4.42572 8.18182,8.18182c2.20029,5.31195 4.54546,10 4.54546,15.45456c0,5.45453 0.43672,16.43164 -0.90909,23.63635c-1.37651,7.36911 -2.6321,14.09689 -6.36365,20.90909c-2.18373,3.98654 -5.29431,5.89661 -7.27272,6.36365c-1.76955,0.41772 -4.54546,0 -5.45454,0c-3.63637,0 -10,-3.63635 -13.63637,-7.27274c-4.54544,-4.54544 -9.29718,-8.01636 -13.63637,-13.63635c-4.77927,-6.18997 -7.7635,-12.04822 -10.90909,-17.27274c-4.03377,-6.69971 -7.99608,-13.71921 -10.90909,-20c-1.71057,-3.6882 -5.00595,-8.07141 -4.54546,-10.90909c0.7281,-4.48676 12.56371,-10.45056 24.54546,-14.54544c8.98117,-3.06943 14.70634,-3.3226 19.09091,-1.81821c3.84552,1.31943 7.09091,5.255 12.72726,12.72729c4.64526,6.15836 11.29456,11.78476 20.90909,13.63635c11.60493,2.23489 26.00941,-6.27905 33.63637,-19.09091c9.15991,-15.38693 11.3634,-32.70599 11.81818,-47.27274c0.39716,-12.72107 -0.96344,-24.03319 -6.36362,-34.54544c-10.25958,-19.97183 -23.90652,-35.14151 -40.9091,-52.72728c-23.68558,-24.49796 -57.53267,-48.33696 -89.09091,-59.0909c-21.09546,-7.1886 -40.35408,-5.93872 -50.90909,7.27273c-14.23133,17.81302 -18.18003,51.69722 -20,92.72726c-1.16827,26.33775 -1.41425,51.88524 9.09091,73.63637c9.76485,20.21832 29.17625,36.54449 53.63637,45.45456c29.21759,10.64307 67.58325,13.07874 97.27272,1.81818c25.10039,-9.52002 35.45454,-28.18182 41.81819,-47.27274l-1.81818,-5.45453"/>
  <path d="m395,338c-2,-1 -0.69568,-3.83939 5,-15c10.57291,-20.71747 17.46637,-38.86597 23,-59c4.3707,-15.90273 7.19144,-30.95731 10,-44c2.14679,-9.96951 1.29291,-15.29289 2,-16c0.70709,-0.70711 1,3 1,15c0,18 1.39478,41.03476 0,69c-1.50186,30.11218 -6.70697,68.06351 -14,101c-5.76868,26.05231 -15.29547,54.88681 -19,65c-2.17538,5.93866 -3,7 -3,4c0,-8 -1.61557,-30.05023 0,-56c1.5029,-24.14005 10.89233,-55.68594 23,-74c11.02979,-16.68365 26.71387,-31.42801 40,-40c9.79935,-6.32239 12.22836,-7.14804 15,-6c2.61313,1.0824 6.32083,8.92657 8,17c1.23862,5.95532 0,11 -2,17l-2,2" id="svg_6" stroke="#000" fill="none"/>
  <path d="m429,329c0,-1 1,-1 3,-2c2,-1 5.00681,-1.16495 7,-1c6.06204,0.50171 10.21167,2.71411 13,5c2.18735,1.79318 4.49347,4.87857 5,8c0.64072,3.94836 1.49622,7.90778 2,12c0.36655,2.97751 2.37451,7.77045 9,19c6.36713,10.79166 13.54254,20.36768 17,31c1.88107,5.78461 2,10 2,15c0,5 -2.42361,8.5058 -6,12c-6.15308,6.01163 -12.37134,9.74673 -15,14c-1.17557,1.9021 -2.00974,3.19708 -4,3c-5.07422,-0.50244 -9,-3 -13,-5c-2,-1 -2.08395,-2.18936 0,-3c6.78488,-2.63922 27.04739,-6.84915 40,-11c9.03427,-2.89517 13,-6 17,-9l2,-1l1,-1l0,-1" id="svg_7" stroke="#000" fill="none"/>
  <path d="m377,166c1,0 2.02676,0.22975 3,0c2.17624,-0.51375 4.83209,-2.37875 9,-4c6.78488,-2.63921 12.42944,-4.60463 17,-10c5.56033,-6.56375 9,-16 12,-25c3,-9 3.7869,-26.04089 6,-37c1.82495,-9.03712 6,-19 2,-19c-1,0 2.19275,5.22005 -1,26c-2.98364,19.41901 -10.57147,40.85873 -15,60c-4.59738,19.87119 -11.38245,40.9126 -16,62c-4.36279,19.92401 -11.49564,37.82007 -16,51c-3.37634,9.87927 -5.19577,17.64886 -9,20c-1.70129,1.05145 -3.83179,0.47784 -7,-6c-4.16806,-8.52216 -4.62073,-19.10995 -3,-31c2.52313,-18.51038 18.707,-48.78041 33,-71c14.71674,-22.87831 30.93994,-45.78557 46,-65c13.11514,-16.73299 26.65399,-29.576 38,-36c7.78329,-4.40683 12,-5 13,-5c1,0 2.14429,1.93414 3,4c1.21014,2.92156 1,5 1,9c0,4 -0.69125,9.0718 -2,14c-1.62332,6.11268 -5,10 -7,13l-1,3l-3,2" id="svg_8" stroke="#000" fill="none"/>
  <path d="m404,166c0,-1 -0.4595,-2.0535 0,-4c0.51373,-2.17625 3.74362,-7.17906 8,-13c3.77945,-5.16872 8.87857,-8.49345 12,-9c3.94836,-0.64073 9.26785,0.51993 13,5c5.46866,6.56459 8.39752,18.58829 11,30c2.23456,9.79831 1,17 1,23c0,4 0,6 1,6c2,0 3.98453,0.08075 9,1c5.98309,1.0966 11.34354,3.6837 15,8c5.56033,6.56375 9.99847,16.91695 11,35c0.7742,13.97858 -3.91641,26.6463 -7,36c-2.88657,8.75601 -5,14 -7,18c-1,2 -2.08582,2.57956 -4,2c-3.45084,-1.04483 -6.99023,-7.79025 -8,-15c-0.97092,-6.93234 0.80286,-14.12369 4,-19c4.71667,-7.19394 11.46381,-14.6891 19,-20c6.59021,-4.64426 11,-4 14,-4l2,0l0,-1" id="svg_9" stroke="#000" fill="none"/>
  <path d="m575,198c0,2 0.16626,5.00345 0,9c-0.50043,12.03119 -4.6864,30.09007 -10,48c-5.66724,19.1019 -15.24884,40.34415 -27,65c-16.93311,35.52844 -51.64886,101.84238 -77,141c-21.86038,33.76572 -42.34152,57.91864 -67,70c-24.70749,12.10535 -61.30746,17.56207 -95,13c-29.81119,-4.0365 -52.54417,-14.71063 -64,-30c-10.72643,-14.31586 -23.61754,-38.59091 -6,-75c28.04245,-57.95361 146.75589,-109.99829 292,-153c152.80786,-45.24107 285.58887,-73.39369 351,-107c8.3913,-4.31119 10.16772,-9.49583 -10,-11c-120.66486,-8.99953 -450.10669,-6.53159 -650,0c-107.17153,3.50186 -125,10 -130,10c-1,0 21.61034,-14.97433 111,-44c114.45044,-37.16314 226.87903,-58.79565 286,-90c12.75464,-6.73196 11.81189,-11.10135 -11,-8c-105.76038,14.37848 -281.62267,53.2639 -445,133c-126.0784,61.53239 -186.52686,124.80545 -191,166c-3.37424,31.07434 39.96078,78.14948 135,103c123.84041,32.38138 345,15 446,-8l64,-33" id="svg_10" stroke="#000" fill="none"/>
 </g>

</svg>