<svg width="800" height="600" xmlns="http://www.w3.org/2000/svg">

 <g>
  <title>Layer 1</title>
  <path d="m171,261.5c1,-1 3.88152,-2.19028 7,-4c7.73599,-4.48936 19.59125,-9.4837 30,-22c6.03214,-7.25351 10.8214,-17.7094 14,-28c2.72093,-8.80888 5.49829,-18.93796 6,-25c0.24744,-2.98978 -0.03838,-4.99927 0,-4c0.50037,13.02879 1,20 1,36c0,20 1.48967,41.05049 0,63c-1.50345,22.15265 -7.48306,44.89941 -11,63c-2.32037,11.9422 -3.69344,18.4588 -5,19c-1.84776,0.76538 -3.82315,0.21411 -5,-6c-3.54033,-18.694 0.91768,-33.27649 5,-47c3.97128,-13.35025 9.75491,-25.17313 19,-38c8.77066,-12.16864 21.26114,-27.72432 35,-41c14.27423,-13.793 25.43799,-23.62042 32,-29c2.78833,-2.28587 4.41885,-2.58115 6,-1c4.74341,4.74342 5.54706,12.11237 7,17c1.53448,5.16191 3,8 3,11l0,4l0,4l-3,4" id="svg_1" stroke="#000" fill="none"/>
  <path d="m230,272.5c1,0 3.09789,-0.82443 5,-2c4.25325,-2.62866 6.29289,-3.29291 7,-4c0.70711,-0.70709 1,-1 4,-1c4,0 5.07613,-0.38269 6,0c1.30656,0.5412 3.69344,2.4588 5,3c0.92389,0.38269 1.29291,1.29291 2,2c0.70709,0.70709 1.77023,3.02676 2,4c0.51373,2.17624 -0.14804,4.22836 1,7c0.5412,1.30655 1,4 1,5c0,4 0,9 0,13c0,3 0,8 0,10c0,4 -0.49756,11.92578 -1,17c-0.49268,4.97568 -1.40601,11.50433 1,16c2.66922,4.98752 7.07611,5.61731 8,6c2.61313,1.0824 4.17245,1.12372 7,-3c5.33499,-7.78061 9.31021,-11.71899 12,-15c2.28589,-2.78833 3.30447,-5.53073 7,-4c2.61313,1.0824 4.38904,3.65591 7,7c3.58844,4.59598 3,8 3,9c0,2 0,4 0,7c0,2 0,4 0,6c0,1 -0.69345,2.4588 -2,3c-0.92389,0.38269 -2,2 -3,3c-1,1 -2.69345,2.4588 -4,3c-0.92389,0.38269 -3,0 -5,0c-2,0 -4.0535,0.4595 -6,0c-2.17624,-0.51373 -3.69345,-2.4588 -5,-3c-0.92389,-0.38269 -2,-1 -2,-3c0,-2 -1.08127,-4.34506 1,-9c2.04086,-4.56454 4.70547,-9.34619 7,-11c5.44199,-3.92236 10.90778,-5.49622 15,-6c3.97003,-0.48874 6,-1 7,-2l0,-1l-2,-1" id="svg_3" stroke="#000" fill="none"/>
  <path d="m230,306.5c1,0 2.87856,0.49347 6,1c5.92253,0.96109 12,0 19,0c2,0 8,0 11,0c3,0 5,-1 8,-1c2,0 2.76935,-1.30322 4,-2c3.58792,-2.03146 9.78326,-2.78271 15,-7c4.97949,-4.02551 5.76312,-9.34348 8,-15c1.3259,-3.35291 2,-7 2,-13c0,-6 1.24832,-14.08699 0,-23c-1.00977,-7.20975 -3.25195,-13.88051 -6,-20c-2.20605,-4.91257 -3.4733,-9.29366 -7,-15c-2.62866,-4.25325 -5.19028,-7.88152 -7,-11c-1.12234,-1.93399 -2.29291,-2.29289 -3,-3c-0.70709,-0.70711 -1.01498,-1.75563 -3,-2c-4.09222,-0.50377 -7.95712,-2.24541 -13,-3c-9.93922,-1.48724 -23.76186,-4.49161 -38,-6c-8.94992,-0.94815 -17,0 -23,0c-4,0 -7.27576,-0.36513 -14,5c-9.41264,7.51015 -18.2397,15.76651 -27,25c-9.25978,9.75995 -15.43861,18.8176 -19,28c-2.28699,5.89659 -2.46895,13.19022 3,26c7.37717,17.27939 15.55302,33.28976 28,52c6.761,10.16312 12.78638,16.17865 17,21c3.83711,4.3905 7.92033,9.16797 12,11c4.91257,2.20605 7.31001,3.33749 10,5c2.40601,1.487 4.132,2.75531 8,5c3.11848,1.80972 6.92033,4.16797 11,6c4.91257,2.20605 11.9435,4.20956 19,6c8.93637,2.2674 16,3 21,3c5,0 8,0 13,0c4,0 8.72549,-0.30804 15,-4c3.65662,-2.15155 7.54358,-5.40213 12,-10c3.47989,-3.59033 6.44296,-8.6387 8,-11c2.96448,-4.49576 3.49347,-7.87857 4,-11c0.32037,-1.97418 0,-4 0,-6l0,-2" id="svg_4" stroke="#000" fill="none"/>
 </g>
</svg>