<svg width="100" height="100" xmlns="http://www.w3.org/2000/svg">

 <g>
  <title>Layer 1</title>
  <path d="m8.18177,35.90908c0.90909,0 2.72728,0.90909 3.63637,0.90909c0.90909,0 2.72728,0 5.45455,-2.72728c1.81818,-1.81818 3.47676,-1.90717 4.54546,-3.63637c0.47794,-0.77332 1.35114,-0.74886 1.81818,-2.72728c0.20887,-0.88477 2.36949,-2.30791 3.63637,-4.54546c1.84678,-3.26175 1.81818,-4.54546 2.72728,-6.36364c0.90909,-1.81818 2.26024,-3.47614 2.72727,-5.45455c0.20887,-0.88477 0,-1.81818 0,0c0,1.81818 -0.37491,4.56095 0,9.09092c0.4561,5.51095 1.81818,9.09092 1.81818,12.72729c0,2.72728 0,6.36364 0,10.00001c0,4.54546 0,6.36364 0,8.18183c0,1.81818 0.29124,3.65984 0,5.45456c-0.46049,2.83768 -1.6793,5.49212 -2.72727,9.09092c-0.80376,2.76015 -1.52694,4.56893 -1.81818,6.36364c-0.46049,2.83768 -1.12239,3.77478 -1.81819,5.45456c-0.492,1.18778 -0.90909,1.81818 -1.81818,1.81818c-1.81818,0 -2.99354,0.64282 -3.63637,0c-0.64283,-0.64283 -0.90909,-0.9091 -0.90909,-2.72728c0,-2.72728 0,-5.45455 0,-7.27274c0,-2.72728 1.01443,-5.42168 1.81818,-8.18183c1.04797,-3.5988 1.53868,-6.53275 2.72728,-8.18183c0.75173,-1.04297 1.62714,-2.79858 2.72728,-5.45455c1.55583,-3.75611 3.10142,-6.73093 6.36364,-10.9091c3.16482,-4.05343 8.10756,-7.37468 11.8182,-10.00001c5.35156,-3.78631 10.55804,-5.72455 12.72729,-8.18183c1.34531,-1.52394 2.44858,-2.23528 3.63637,-2.72728c0.83989,-0.34789 1.81819,0 3.63637,0c0.90909,0 1.2159,3.0091 2.72727,5.45455c0.67591,1.09364 0.9091,3.63637 0.9091,5.45455l-0.9091,1.81818l0,0.90909" id="svg_7" stroke="#000" fill="none"/>
  <path d="m32.72726,35.90908c0.90909,0 1.53949,0.4171 2.72728,0.90909c0.83989,0.34789 1.81818,0 2.72728,0c1.81819,0 3.63637,0 5.45456,0c2.72728,0 3.77477,0.2133 5.45455,0.90909c1.18779,0.492 1.65796,1.35114 3.63637,1.81818c0.88477,0.20887 1.81818,0.90909 2.72728,1.81818c0.90909,0.90909 0.90909,1.81818 0.90909,4.54546c0,2.72728 0,5.45455 0,7.27274c0,0.90909 0,3.63637 0,5.45456c0,0.90909 0,2.72728 0,5.45455c0,1.81818 -0.41773,3.68501 0,5.45455c0.46704,1.97841 0.90909,5.45455 2.72728,7.27274c1.81818,1.81818 2.72728,2.72728 3.63637,2.72728c1.81818,0 2.72728,0 5.45455,0c1.81818,0 4.38585,-0.82011 5.45455,0.90909c0.47794,0.77332 1.81818,0.90909 2.72728,1.81818c0.9091,0.9091 2.23528,1.53949 2.72727,2.72728c1.04368,2.51968 0,4.54546 0,5.45455c0,1.81818 0,4.54546 0,6.36364c0,1.81818 -0.63039,4.05347 -1.81818,4.54546c-0.83989,0.34789 -3.63637,0 -5.45455,0c-2.72727,0 -4.61465,-0.5612 -5.45455,-0.9091c-1.18778,-0.492 -2.99354,-1.17536 -3.63637,-1.81818c-1.28565,-1.28565 0,-2.72727 0,-6.36364c0,-3.63637 -0.60228,-4.82729 0.90909,-7.27274c0.67591,-1.09364 1.34024,-1.95396 1.81819,-2.72728c1.0687,-1.72919 4.54546,-0.90909 6.36364,-0.90909c0.9091,0 1.81818,0 2.72728,0l0.90909,0" id="svg_8" stroke="#000" fill="none"/>
  <path d="m35.45453,55.00001c0.90909,0 1.6843,1.06645 2.72728,1.81819c1.64909,1.1886 3.63637,0.90909 5.45456,1.81818c1.81818,0.90909 5.078,0.53254 6.36364,1.81818c0.64283,0.64283 1.81818,0.90909 2.72728,0.90909c1.81818,0 4.5941,0.41773 6.36364,0c1.97841,-0.46704 3.63637,-1.81818 4.54546,-2.72728c1.81819,-1.81818 3.80935,-3.52866 5.45456,-6.36365c1.02031,-1.75818 2.72727,-2.72728 2.72727,-3.63637c0,-1.81818 0,-4.54546 0,-7.27274c0,-4.54546 0,-6.36364 0,-8.18183c0,-0.90909 -1.32619,-2.44858 -1.81818,-3.63637c-0.69579,-1.67978 0,-3.63637 0,-5.45455c0,-2.72728 0,-3.63637 0,-5.45455c0,-0.90909 -0.26627,-2.08445 -0.90909,-2.72728c-0.64283,-0.64283 -0.6304,-1.32619 -1.81818,-1.81818c-0.8399,-0.3479 -2.08446,-0.26627 -2.72728,-0.90909c-0.64283,-0.64283 -2.72728,-0.90909 -4.54546,-0.90909c-1.81818,0 -2.72728,-0.90909 -3.63637,-0.90909c-1.81818,0 -3.65984,-0.61785 -5.45455,-0.90909c-2.83768,-0.46049 -3.65984,-0.61785 -5.45455,-0.90909c-2.83768,-0.46049 -4.54546,-0.90909 -6.36364,-0.90909c-1.81819,0 -2.72728,0 -5.45456,0c-1.81818,0 -2.72727,0 -5.45455,0c-0.90909,0 -3.63637,0 -5.45455,0c-1.81818,0 -5.7261,-0.95588 -7.27274,0c-1.7292,1.0687 -1.81818,3.63637 -2.72728,6.36364c-0.90909,2.72728 -2.72728,4.54546 -2.72728,5.45455c0,0.90909 -0.13118,3.5765 -0.90909,5.45455c-1.10014,2.65597 -1.81818,3.63637 -1.81818,6.36365c0,1.81818 0,3.63637 -0.90909,5.45455c-0.90909,1.81818 -0.86231,3.90791 -1.81818,5.45455c-1.0687,1.72919 -1.47029,1.88738 -1.81818,2.72728c-0.492,1.18779 -1.81818,1.81818 -1.81818,3.63637c0,1.81818 -0.41773,4.5941 0,6.36364c0.46704,1.97842 0.90909,2.72728 2.72728,4.54546c0.90909,0.90909 1.53949,2.23528 2.72728,2.72728c0.83989,0.34789 1.53868,0.1691 2.72728,1.81818c1.50347,2.08595 2.37938,2.79648 2.72728,3.63637c0.492,1.18779 1.97554,0.77522 2.72728,1.81818c1.1886,1.64909 1.81818,1.81818 1.81818,2.72728c0,1.81818 1.35114,3.47614 1.81818,5.45455c0.6266,2.65432 1.35114,4.38524 1.81818,6.36365c0.41773,1.76955 1.32619,1.53949 1.81818,2.72727c0.3479,0.8399 0.26626,2.08445 0.90909,2.72728c0.64282,0.64282 1.53949,1.32619 2.72728,1.81818c1.67978,0.69579 2.72728,0 4.54546,0c1.81818,0 6.36364,1.81818 10.00001,2.72727c3.63637,0.90909 4.56894,0.61786 6.36364,0.9091c2.83768,0.46049 3.63637,0.90909 4.54546,0.90909c0.90909,0 2.72728,0.9091 4.54546,0.9091c1.81818,0 3.63637,0 5.45455,0c0.90909,0 1.81818,0 3.63637,0c0.9091,0 1.81818,0 2.72728,0c2.72727,0 4.54546,-0.9091 5.45455,-0.9091c1.81818,0 2.79647,0.34789 3.63637,0c1.18778,-0.492 1.81818,-0.90909 2.72727,-1.81818l0.9091,0l1.81818,0l0.90909,-0.90909" id="svg_10" stroke="#000" fill="none"/>
 </g>
</svg>